<?xml version="1.0" encoding="UTF-8" standalone="no"?>
<svg
   xmlns:dc="http://purl.org/dc/elements/1.1/"
   xmlns:cc="http://creativecommons.org/ns#"
   xmlns:rdf="http://www.w3.org/1999/02/22-rdf-syntax-ns#"
   xmlns:svg="http://www.w3.org/2000/svg"
   xmlns="http://www.w3.org/2000/svg"
   xmlns:sodipodi="http://sodipodi.sourceforge.net/DTD/sodipodi-0.dtd"
   xmlns:inkscape="http://www.inkscape.org/namespaces/inkscape"
   viewBox="0 0 322.36844 322.36845"
   version="1.1"
   id="svg16"
   sodipodi:docname="datacamp.svg"
   width="322.36844"
   height="322.36844"
   inkscape:version="0.92.2 (5c3e80d, 2017-08-06)"
   inkscape:export-filename="C:\Users\mazen.alhrishy\Documents\Git\python-data-science-courses\resources\images\datacamp-128.png"
   inkscape:export-xdpi="38.384983"
   inkscape:export-ydpi="38.384983">
  <metadata
     id="metadata20">
    <rdf:RDF>
      <cc:Work
         rdf:about="">
        <dc:format>image/svg+xml</dc:format>
        <dc:type
           rdf:resource="http://purl.org/dc/dcmitype/StillImage" />
        <dc:title>Fichier 5</dc:title>
      </cc:Work>
    </rdf:RDF>
  </metadata>
  <sodipodi:namedview
     pagecolor="#ffffff"
     bordercolor="#666666"
     borderopacity="1"
     objecttolerance="10"
     gridtolerance="10"
     guidetolerance="10"
     inkscape:pageopacity="0"
     inkscape:pageshadow="2"
     inkscape:window-width="1858"
     inkscape:window-height="1057"
     id="namedview18"
     showgrid="false"
     showguides="true"
     inkscape:guide-bbox="true"
     fit-margin-top="0"
     fit-margin-left="0"
     fit-margin-right="0"
     fit-margin-bottom="0"
     inkscape:zoom="0.76930602"
     inkscape:cx="-197.58072"
     inkscape:cy="117.38497"
     inkscape:window-x="1974"
     inkscape:window-y="-8"
     inkscape:window-maximized="1"
     inkscape:current-layer="svg16">
    <sodipodi:guide
       position="162.88051,346.1626"
       orientation="1,0"
       id="guide4531"
       inkscape:locked="false" />
    <sodipodi:guide
       position="387.75851,161.58066"
       orientation="0,1"
       id="guide4533"
       inkscape:locked="false" />
  </sodipodi:namedview>
  <defs
     id="defs4">
    <style
       id="style2">.cls-1{fill:#3ac}.cls-2{fill:#fff}</style>
  </defs>
  <title
     id="title6">Fichier 5</title>
  <path
     style="fill:#000000;stroke-width:1.29987288"
     d="M 129.47378,318.5496 C 97.032522,311.72914 71.07473,297.57886 47.53322,273.88162 16.174583,242.31554 0.88719611,205.10818 1.0129554,160.6578 1.0998982,129.92733 9.2056468,101.36793 25.059306,75.934067 32.91507,63.331146 52.344343,42.11134 64.161884,33.227936 92.599787,11.850779 124.78915,1.1015512 160.67073,1.0000349 205.02916,0.8745361 242.39376,16.226524 273.89454,47.5203 c 24.52146,24.360304 39.56618,52.8205 45.29834,85.69117 2.57879,14.78789 2.57879,41.40466 0,56.19254 -11.42467,65.51394 -64.26201,118.35128 -129.77595,129.77595 -16.23091,2.83044 -44.91687,2.52877 -59.94315,-0.63036 z m 59.21075,-69.82541 c 4.46595,-21.49557 5.39345,-22.42281 22.42922,-22.42281 14.40356,0 16.50043,-1.32942 16.50043,-10.46137 0,-4.48116 0.57429,-6.37921 2.10829,-6.96785 1.53092,-0.58748 1.90618,-1.81958 1.37028,-4.49907 -0.40591,-2.02952 -0.0836,-4.34441 0.71617,-5.14421 1.07232,-1.07232 1.05383,-2.33284 -0.0704,-4.80029 -2.32042,-5.09277 -1.87809,-6.66156 2.37503,-8.42326 5.97281,-2.47403 5.7165,-5.09115 -1.71851,-17.54829 l -5.43079,-9.09911 -0.0208,-17.54828 c -0.0153,-12.89673 -0.57168,-18.99431 -2.09888,-23.00351 l -2.07802,-5.45522 4.04868,-0.3942 c 3.23844,-0.31532 4.12564,-1.0541 4.43325,-3.69158 0.97399,-8.35164 -16.99891,-23.197078 -36.21849,-29.916101 -6.02882,-2.107632 -10.864,-4.270956 -10.74484,-4.807386 0.1192,-0.53643 0.41162,-1.84021 0.64994,-2.897288 0.85747,-3.80355 -11.12317,-6.636055 -25.56417,-6.043968 -16.21483,0.664814 -21.35105,2.343278 -21.02972,6.872298 0.20424,2.878867 -0.71128,3.611942 -7.71328,6.176179 -24.4808,8.965228 -39.960447,25.910456 -43.720158,47.859496 -3.04907,17.80035 6.061523,43.9108 20.601828,59.04373 10.79855,11.23865 11.58833,13.2012 11.42905,28.40049 -0.11485,10.95915 -0.84957,15.29327 -4.68254,27.6223 l -4.54633,14.62357 h 38.71098 38.71098 z"
     id="path16"
     inkscape:connector-curvature="0" />
  <path
     style="fill:#000000;stroke-width:1.29987288"
     d="m 149.98763,180.84531 c -7.71146,-1.83268 -18.47348,-7.95906 -24.05225,-13.69199 l -5.52946,-5.68224 -4.24786,3.24 c -2.33633,1.782 -4.84049,2.87374 -5.56481,2.42609 -2.57731,-1.59287 -7.99584,-14.0723 -9.79434,-22.5574 -2.595145,-12.24353 -2.735357,-11.86923 4.44616,-11.86923 h 6.3183 l 0.73294,-6.18852 c 0.69218,-5.84433 4.78509,-18.34549 7.27997,-22.23552 0.91919,-1.43321 2.09227,-1.12919 6.06853,1.57275 l 4.92907,3.34939 5.03164,-4.54578 c 2.7674,-2.50018 7.07094,-5.518263 9.56343,-6.706844 3.18431,-1.518492 4.29351,-2.760261 3.73043,-4.176266 -4.05252,-10.19103 -5.92123,-15.952867 -5.35693,-16.517164 3.0079,-3.007906 23.01316,-3.818762 31.42688,-1.2738 4.49822,1.360613 5.1464,2.023302 4.80589,4.913464 -0.31404,2.665424 0.39984,3.669389 3.53155,4.966586 2.15883,0.894219 4.61336,2.455091 5.4545,3.468605 1.3133,1.582425 1.85076,1.551882 3.80447,-0.2162 2.10838,-1.908053 2.74581,-1.58826 8.69751,4.363441 3.53232,3.532316 7.74526,9.236668 9.3621,12.676338 2.55423,5.43391 2.68712,6.43864 1.01342,7.66247 -1.56081,1.1413 -1.70298,2.7583 -0.74935,8.52295 1.06681,6.44888 0.61967,16.62881 -0.97987,22.30828 -0.56367,2.0014 -1.08949,2.02885 -5.95817,0.31108 -2.93697,-1.03622 -5.43707,-1.73156 -5.55578,-1.54519 -0.11871,0.18637 -1.72663,2.97109 -3.57315,6.18828 -1.84652,3.21718 -4.80397,7.20046 -6.5721,8.85173 l -3.21479,3.00231 -3.83596,-4.65369 -3.83596,-4.65368 -4.73005,1.97635 c -2.60154,1.08699 -6.21121,1.97634 -8.0215,1.97634 h -3.29143 v 12.99873 12.99873 l -3.57465,-0.13306 c -1.96606,-0.0732 -5.45733,-0.58049 -7.75838,-1.12734 z m 20.53213,-46.73491 c 5.17696,-5.17696 5.18906,-11.50266 0.033,-17.27325 -3.08881,-3.45699 -4.72616,-4.21555 -9.09911,-4.21555 -7.7094,0 -12.48181,5.00179 -12.48181,13.08173 0,4.88834 0.64188,6.48456 3.64713,9.06957 5.35215,4.60372 12.91442,4.32384 17.90076,-0.6625 z"
     id="path14"
     inkscape:connector-curvature="0" />
  <g
     data-name="Calque 1"
     id="Calque_1-2"
     transform="translate(19.894499,19.302415)">
    <path
       style="fill:#ffffff"
       inkscape:connector-curvature="0"
       id="path10"
       d="m 205.66,130.43 c 2.82,-11.64 2.47,-22.58 -3.88,-37.88 0,0 10.23,4 9.17,-3.9 -1.06,-7.9 -12.34,-16.17 -20.8,-21.44 -3.72,-2.32 -13.81,-7.27 -27.33,-10.28 l 2.52,-5.7 -0.7,-0.34 c -21,-10.21 -45.23,-1 -45.48,-0.86 l -0.75,0.29 2.4,6.34 a 83.51,83.51 0 0 0 -20.39,7.59 C 43.48,94.59 72.4,153.81 90,167.92 c 17.6,14.11 9.52,42.85 0,68.86 h 76.55 c 1.06,-4.88 0.14,2.4 3.7,-17 3.56,-19.4 17.32,-12.21 28.16,-12.87 10.84,-0.66 9.12,-8.2 9,-16.66 5.29,-2.38 5.29,-4.89 1.76,-7.93 4.59,-4.23 3.88,-4.23 1.41,-8.38 -2.47,-4.15 -0.71,-6.08 -0.71,-6.08 0,0 7.4,-1.44 8.46,-5.31 0.37,-8.55 -15.49,-20.48 -12.67,-32.12 z M 189.84,128 178.5,124.15 c -0.6,1.55 -6.38,16 -14,18.49 l -7.16,-9.46 c -3.44,2.69 -11.28,5.06 -15.07,3.95 v -0.35 h -0.2 l 0.21,26.08 c -15,1.56 -33,-7.56 -41.63,-20.1 l -9.41,7.14 C 80.54,136.98 78.91,121.4 78.8,112.46 h 12.69 c 0,-9.92 3.88,-22.85 9.34,-30 l 9.88,7 c 0.8,-1 8.27,-9.92 18.26,-13.15 h 0.15 L 122,57.39 c 15.09,-4.34 26.17,-4.28 38.23,0.2 a 4.14,4.14 0 0 1 1,0.52 l 0.19,0.14 -2.07,5.63 c 0.56,0.25 8.57,3.84 11.88,7.22 l 2.66,-3.68 c 0,0 15.61,8.41 20.37,27.13 L 190.11,96 v -0.1 a 59.23,59.23 0 0 1 -0.27,32.1 z"
       class="cls-2" />
    <path
       style="fill:#ffffff"
       inkscape:connector-curvature="0"
       id="path12"
       d="m 141.62,93.53 a 12.6,12.6 0 1 0 12.6,12.6 12.61,12.61 0 0 0 -12.6,-12.6 z"
       class="cls-2" />
  </g>
</svg>
