<?xml version="1.0" encoding="UTF-8" standalone="no"?>
<svg
   xmlns:dc="http://purl.org/dc/elements/1.1/"
   xmlns:cc="http://creativecommons.org/ns#"
   xmlns:rdf="http://www.w3.org/1999/02/22-rdf-syntax-ns#"
   xmlns:svg="http://www.w3.org/2000/svg"
   xmlns="http://www.w3.org/2000/svg"
   xmlns:sodipodi="http://sodipodi.sourceforge.net/DTD/sodipodi-0.dtd"
   xmlns:inkscape="http://www.inkscape.org/namespaces/inkscape"
   viewBox="0 0 322.36844 322.36845"
   version="1.1"
   id="svg16"
   sodipodi:docname="datacamp.svg"
   width="322.36844"
   height="322.36844"
   inkscape:version="0.92.2 5c3e80d, 2017-08-06">
  <metadata
     id="metadata20">
    <rdf:RDF>
      <cc:Work
         rdf:about="">
        <dc:format>image/svg+xml</dc:format>
        <dc:type
           rdf:resource="http://purl.org/dc/dcmitype/StillImage" />
        <dc:title>Fichier 5</dc:title>
      </cc:Work>
    </rdf:RDF>
  </metadata>
  <sodipodi:namedview
     pagecolor="#ffffff"
     bordercolor="#666666"
     borderopacity="1"
     objecttolerance="10"
     gridtolerance="10"
     guidetolerance="10"
     inkscape:pageopacity="0"
     inkscape:pageshadow="2"
     inkscape:window-width="1333"
     inkscape:window-height="816"
     id="namedview18"
     showgrid="false"
     showguides="true"
     inkscape:guide-bbox="true"
     fit-margin-top="0"
     fit-margin-left="0"
     fit-margin-right="0"
     fit-margin-bottom="0"
     inkscape:zoom="0.76930602"
     inkscape:cx="80.338584"
     inkscape:cy="117.38497"
     inkscape:window-x="159"
     inkscape:window-y="26"
     inkscape:window-maximized="0"
     inkscape:current-layer="svg16">
    <sodipodi:guide
       position="162.88051,346.1626"
       orientation="1,0"
       id="guide4531"
       inkscape:locked="false" />
    <sodipodi:guide
       position="387.75851,161.58066"
       orientation="0,1"
       id="guide4533"
       inkscape:locked="false" />
  </sodipodi:namedview>
  <defs
     id="defs4">
    <style
       id="style2">.cls-1{fill:#3ac}.cls-2{fill:#fff}</style>
  </defs>
  <title
     id="title6">Fichier 5</title>
  <circle
     style="fill:#33aacc;fill-opacity:1;stroke-width:0.76232392;stroke-miterlimit:4;stroke-dasharray:none"
     id="path4516"
     cx="161.18422"
     cy="161.18422"
     r="161.18422" />
  <g
     data-name="Calque 1"
     id="Calque_1-2"
     transform="translate(19.894499,19.302415)">
    <path
       style="fill:#ffffff"
       inkscape:connector-curvature="0"
       id="path10"
       d="m 205.66,130.43 c 2.82,-11.64 2.47,-22.58 -3.88,-37.88 0,0 10.23,4 9.17,-3.9 -1.06,-7.9 -12.34,-16.17 -20.8,-21.44 -3.72,-2.32 -13.81,-7.27 -27.33,-10.28 l 2.52,-5.7 -0.7,-0.34 c -21,-10.21 -45.23,-1 -45.48,-0.86 l -0.75,0.29 2.4,6.34 a 83.51,83.51 0 0 0 -20.39,7.59 C 43.48,94.59 72.4,153.81 90,167.92 c 17.6,14.11 9.52,42.85 0,68.86 h 76.55 c 1.06,-4.88 0.14,2.4 3.7,-17 3.56,-19.4 17.32,-12.21 28.16,-12.87 10.84,-0.66 9.12,-8.2 9,-16.66 5.29,-2.38 5.29,-4.89 1.76,-7.93 4.59,-4.23 3.88,-4.23 1.41,-8.38 -2.47,-4.15 -0.71,-6.08 -0.71,-6.08 0,0 7.4,-1.44 8.46,-5.31 0.37,-8.55 -15.49,-20.48 -12.67,-32.12 z M 189.84,128 178.5,124.15 c -0.6,1.55 -6.38,16 -14,18.49 l -7.16,-9.46 c -3.44,2.69 -11.28,5.06 -15.07,3.95 v -0.35 h -0.2 l 0.21,26.08 c -15,1.56 -33,-7.56 -41.63,-20.1 l -9.41,7.14 C 80.54,136.98 78.91,121.4 78.8,112.46 h 12.69 c 0,-9.92 3.88,-22.85 9.34,-30 l 9.88,7 c 0.8,-1 8.27,-9.92 18.26,-13.15 h 0.15 L 122,57.39 c 15.09,-4.34 26.17,-4.28 38.23,0.2 a 4.14,4.14 0 0 1 1,0.52 l 0.19,0.14 -2.07,5.63 c 0.56,0.25 8.57,3.84 11.88,7.22 l 2.66,-3.68 c 0,0 15.61,8.41 20.37,27.13 L 190.11,96 v -0.1 a 59.23,59.23 0 0 1 -0.27,32.1 z"
       class="cls-2" />
    <path
       style="fill:#ffffff"
       inkscape:connector-curvature="0"
       id="path12"
       d="m 141.62,93.53 a 12.6,12.6 0 1 0 12.6,12.6 12.61,12.61 0 0 0 -12.6,-12.6 z"
       class="cls-2" />
  </g>
</svg>
