<?xml version="1.0" encoding="UTF-8" standalone="no"?>
<svg
   xmlns:dc="http://purl.org/dc/elements/1.1/"
   xmlns:cc="http://creativecommons.org/ns#"
   xmlns:rdf="http://www.w3.org/1999/02/22-rdf-syntax-ns#"
   xmlns:svg="http://www.w3.org/2000/svg"
   xmlns="http://www.w3.org/2000/svg"
   xmlns:sodipodi="http://sodipodi.sourceforge.net/DTD/sodipodi-0.dtd"
   xmlns:inkscape="http://www.inkscape.org/namespaces/inkscape"
   viewBox="0 0 322.36844 322.36845"
   version="1.1"
   id="svg16"
   sodipodi:docname="datacamp-black.svg"
   width="322.36844"
   height="322.36844"
   inkscape:version="0.92.2 5c3e80d, 2017-08-06">
  <metadata
     id="metadata20">
    <rdf:RDF>
      <cc:Work
         rdf:about="">
        <dc:format>image/svg+xml</dc:format>
        <dc:type
           rdf:resource="http://purl.org/dc/dcmitype/StillImage" />
        <dc:title>Fichier 5</dc:title>
      </cc:Work>
    </rdf:RDF>
  </metadata>
  <sodipodi:namedview
     pagecolor="#ffffff"
     bordercolor="#666666"
     borderopacity="1"
     objecttolerance="10"
     gridtolerance="10"
     guidetolerance="10"
     inkscape:pageopacity="0"
     inkscape:pageshadow="2"
     inkscape:window-width="1333"
     inkscape:window-height="816"
     id="namedview18"
     showgrid="false"
     showguides="true"
     inkscape:guide-bbox="true"
     fit-margin-top="0"
     fit-margin-left="0"
     fit-margin-right="0"
     fit-margin-bottom="0"
     inkscape:zoom="0.76930602"
     inkscape:cx="429.35444"
     inkscape:cy="585.33919"
     inkscape:window-x="159"
     inkscape:window-y="26"
     inkscape:window-maximized="0"
     inkscape:current-layer="svg16">
    <sodipodi:guide
       position="162.88051,346.1626"
       orientation="1,0"
       id="guide4531"
       inkscape:locked="false" />
    <sodipodi:guide
       position="387.75851,161.58066"
       orientation="0,1"
       id="guide4533"
       inkscape:locked="false" />
  </sodipodi:namedview>
  <defs
     id="defs4">
    <style
       id="style2">.cls-1{fill:#3ac}.cls-2{fill:#fff}</style>
  </defs>
  <title
     id="title6">Fichier 5</title>
  <path
     style="stroke-width:1.29987288"
     d="m 147.28204,180.11024 c -6.65322,-2.03115 -14.85291,-6.998 -20.91681,-12.67007 l -6.24894,-5.84515 -4.5386,3.46176 -4.5386,3.46176 -3.11308,-4.97027 c -4.02317,-6.4233 -7.27925,-16.14971 -8.292513,-24.77097 l -0.804693,-6.84668 h 6.678336 c 6.49978,0 6.67833,-0.1006 6.67833,-3.7627 0,-4.68261 4.49149,-19.46976 6.92443,-22.797 1.76844,-2.41848 1.91765,-2.40839 6.52858,0.44132 l 4.71879,2.91637 5.53767,-4.48554 c 3.04571,-2.46704 7.39769,-5.429591 9.67106,-6.583437 l 4.13339,-2.097904 -3.15848,-8.059487 c -1.73717,-4.432718 -3.15849,-8.783898 -3.15849,-9.669289 0,-3.284775 22.33608,-4.532873 32.43841,-1.812597 4.55894,1.227593 5.02748,1.712026 4.0947,4.233567 -0.8984,2.428607 -0.2146,3.379244 4.64964,6.464058 6.35863,4.032518 7.7488,4.357622 8.53594,1.996203 0.79573,-2.387191 9.24608,4.463892 13.67082,11.083554 5.67716,8.493352 7.29093,12.829912 5.24529,14.095362 -1.24262,0.7687 -1.57165,4.13473 -1.24018,12.68721 0.24815,6.4025 0.0447,13.49176 -0.45218,15.7539 -0.81274,3.70037 -1.24921,4.01845 -4.3508,3.17069 -6.75632,-1.8467 -7.80692,-1.34447 -12.16274,5.81428 -6.11141,10.04407 -8.0981,10.91436 -12.55148,5.49833 l -3.58525,-4.36024 -6.31078,2.14257 c -3.47093,1.17841 -7.09207,1.84275 -8.04698,1.47632 -1.37679,-0.52832 -1.73619,2.01614 -1.73619,12.29169 v 12.95793 l -5.52446,-0.11172 c -3.03846,-0.0615 -6.98682,-0.55817 -8.77414,-1.10382 z m 20.60945,-43.53258 c 11.46348,-5.928 6.60718,-24.14514 -6.43657,-24.14514 -3.70491,0 -9.96023,3.48562 -11.53461,6.42737 -2.0347,3.80187 -1.54842,10.79233 0.96528,13.87629 4.68285,5.7452 10.69725,7.1038 17.0059,3.84148 z"
     id="path16"
     inkscape:connector-curvature="0" />
  <path
     style="stroke-width:1.29987288"
     d="M 135.58318,319.82473 C 102.53708,314.40284 72.796331,299.08275 48.40348,274.91663 16.766492,243.5737 1.1263883,205.94686 1.1263883,161.17775 1.1263883,116.41939 16.711463,78.917254 48.400044,47.423848 81.059456,14.965589 121.73816,-0.78080761 168.08,1.0967114 c 40.18547,1.6280963 74.30879,16.0825976 103.2179,43.7226736 33.01221,31.563065 50.15664,71.336435 50.15664,116.358365 0,44.66379 -17.0364,84.49495 -49.52776,115.79607 -21.31972,20.53872 -43.67958,32.83978 -73.29977,40.32516 -16.39961,4.14439 -45.96013,5.32867 -63.04383,2.52575 z m 53.21395,-71.23053 c 4.04381,-21.09644 5.30341,-22.31495 23.13347,-22.37888 14.14299,-0.0507 15.94355,-1.24013 15.94355,-10.53218 0,-3.35854 0.78104,-6.09004 2.04018,-7.13503 1.16233,-0.96465 1.75035,-2.80149 1.36661,-4.26894 -0.37047,-1.41665 -0.10087,-3.64576 0.59902,-4.95358 0.90733,-1.69537 0.67412,-3.53515 -0.81253,-6.41001 -1.1468,-2.21769 -1.89573,-4.19587 -1.66429,-4.39598 0.23145,-0.20011 2.32188,-1.33065 4.64541,-2.51232 5.74211,-2.92029 5.46165,-5.93464 -1.6667,-17.91271 -6.33667,-10.64781 -6.70352,-12.51643 -5.18688,-26.4205 0.9239,-8.46992 -0.46211,-18.12258 -3.8483,-26.80093 -0.64903,-1.6634 -0.17235,-1.98459 2.25633,-1.52032 1.77179,0.3387 3.7593,-0.23083 4.68096,-1.34137 6.33008,-7.62728 -16.50211,-27.465714 -39.13272,-34.001644 -6.68919,-1.931897 -7.39887,-2.465486 -6.74488,-5.071225 0.9131,-3.638044 -2.55746,-5.413372 -14.22677,-7.277551 -8.24636,-1.317365 -10.26575,-1.191981 -24.5838,1.526411 -7.25922,1.378217 -7.50759,1.55863 -6.76983,4.91759 0.70241,3.198042 0.3037,3.623452 -4.81312,5.135512 -15.83337,4.678882 -35.102485,19.084659 -40.991516,30.645657 -6.80163,13.35255 -8.455542,27.49386 -4.870584,41.64456 3.059744,12.07756 11.385598,27.85012 18.17405,34.42906 11.95743,11.58838 15.2851,21.88231 12.45415,38.52602 -1.28116,7.53217 -6.1768,25.64708 -8.72796,32.2953 -0.64847,1.68989 4.23238,1.93727 38.22274,1.93727 h 38.96613 z"
     id="path14"
     inkscape:connector-curvature="0" />
  <g
     data-name="Calque 1"
     id="Calque_1-2"
     transform="translate(19.894499,19.302415)">
    <path
       style="fill:#ffffff"
       inkscape:connector-curvature="0"
       id="path10"
       d="m 205.66,130.43 c 2.82,-11.64 2.47,-22.58 -3.88,-37.88 0,0 10.23,4 9.17,-3.9 -1.06,-7.9 -12.34,-16.17 -20.8,-21.44 -3.72,-2.32 -13.81,-7.27 -27.33,-10.28 l 2.52,-5.7 -0.7,-0.34 c -21,-10.21 -45.23,-1 -45.48,-0.86 l -0.75,0.29 2.4,6.34 a 83.51,83.51 0 0 0 -20.39,7.59 C 43.48,94.59 72.4,153.81 90,167.92 c 17.6,14.11 9.52,42.85 0,68.86 h 76.55 c 1.06,-4.88 0.14,2.4 3.7,-17 3.56,-19.4 17.32,-12.21 28.16,-12.87 10.84,-0.66 9.12,-8.2 9,-16.66 5.29,-2.38 5.29,-4.89 1.76,-7.93 4.59,-4.23 3.88,-4.23 1.41,-8.38 -2.47,-4.15 -0.71,-6.08 -0.71,-6.08 0,0 7.4,-1.44 8.46,-5.31 0.37,-8.55 -15.49,-20.48 -12.67,-32.12 z M 189.84,128 178.5,124.15 c -0.6,1.55 -6.38,16 -14,18.49 l -7.16,-9.46 c -3.44,2.69 -11.28,5.06 -15.07,3.95 v -0.35 h -0.2 l 0.21,26.08 c -15,1.56 -33,-7.56 -41.63,-20.1 l -9.41,7.14 C 80.54,136.98 78.91,121.4 78.8,112.46 h 12.69 c 0,-9.92 3.88,-22.85 9.34,-30 l 9.88,7 c 0.8,-1 8.27,-9.92 18.26,-13.15 h 0.15 L 122,57.39 c 15.09,-4.34 26.17,-4.28 38.23,0.2 a 4.14,4.14 0 0 1 1,0.52 l 0.19,0.14 -2.07,5.63 c 0.56,0.25 8.57,3.84 11.88,7.22 l 2.66,-3.68 c 0,0 15.61,8.41 20.37,27.13 L 190.11,96 v -0.1 a 59.23,59.23 0 0 1 -0.27,32.1 z"
       class="cls-2" />
    <path
       style="fill:#ffffff"
       inkscape:connector-curvature="0"
       id="path12"
       d="m 141.62,93.53 a 12.6,12.6 0 1 0 12.6,12.6 12.61,12.61 0 0 0 -12.6,-12.6 z"
       class="cls-2" />
  </g>
</svg>
