<?xml version="1.0" encoding="UTF-8" standalone="no"?>
<!-- Generator: Adobe Illustrator 18.0.0, SVG Export Plug-In . SVG Version: 6.00 Build 0)  -->

<svg
   xmlns:dc="http://purl.org/dc/elements/1.1/"
   xmlns:cc="http://creativecommons.org/ns#"
   xmlns:rdf="http://www.w3.org/1999/02/22-rdf-syntax-ns#"
   xmlns:svg="http://www.w3.org/2000/svg"
   xmlns="http://www.w3.org/2000/svg"
   xmlns:sodipodi="http://sodipodi.sourceforge.net/DTD/sodipodi-0.dtd"
   xmlns:inkscape="http://www.inkscape.org/namespaces/inkscape"
   version="1.1"
   id="Capa_1"
   x="0px"
   y="0px"
   viewBox="0 0 112.196 112.196"
   style="enable-background:new 0 0 112.196 112.196;"
   xml:space="preserve"
   sodipodi:docname="linkedin-black.svg"
   inkscape:version="0.92.2 5c3e80d, 2017-08-06"
   inkscape:export-filename="/Users/mga/Documents/github/python-data-science-courses/resources/images/linkedin-black-128.png"
   inkscape:export-xdpi="109.52262"
   inkscape:export-ydpi="109.52262"><metadata
     id="metadata45"><rdf:RDF><cc:Work
         rdf:about=""><dc:format>image/svg+xml</dc:format><dc:type
           rdf:resource="http://purl.org/dc/dcmitype/StillImage" /><dc:title></dc:title></cc:Work></rdf:RDF></metadata><defs
     id="defs43" /><sodipodi:namedview
     pagecolor="#ffffff"
     bordercolor="#666666"
     borderopacity="1"
     objecttolerance="10"
     gridtolerance="10"
     guidetolerance="10"
     inkscape:pageopacity="0"
     inkscape:pageshadow="2"
     inkscape:window-width="1920"
     inkscape:window-height="1058"
     id="namedview41"
     showgrid="false"
     inkscape:zoom="2.1034618"
     inkscape:cx="-2910.4403"
     inkscape:cy="75.114271"
     inkscape:window-x="0"
     inkscape:window-y="0"
     inkscape:window-maximized="1"
     inkscape:current-layer="Capa_1" /><path
     style="stroke-width:0.47540677"
     d="M 46.416271,111.10378 C 34.898639,109.01598 24.891487,103.75518 16.591696,95.424865 -2.1505302,76.613723 -5.0985611,47.920337 9.4092951,25.51806 13.028907,19.928844 20.909724,12.164778 26.422896,8.7565079 54.332581,-8.4973946 90.755738,1.5041433 105.68428,30.521115 c 6.6606,12.946358 8.04625,28.208499 3.82234,42.100874 -1.53136,5.036597 -5.31233,12.356078 -8.71632,16.873698 -8.544494,11.339843 -20.283395,18.693323 -34.178898,21.410353 -5.478868,1.0713 -14.868794,1.16324 -20.195131,0.19774 z M 41.550552,63.561886 V 43.357098 h -6.893398 -6.893398 v 20.204788 20.204788 h 6.893398 6.893398 z m 20.919676,7.487657 c 0.0014,-11.851135 0.06611,-12.822643 0.946469,-14.266549 1.501524,-2.462697 3.602599,-3.527856 6.532041,-3.311465 1.572342,0.116142 2.865443,0.519696 3.512315,1.096131 2.135575,1.903025 2.318787,3.213479 2.318787,16.585464 v 12.61355 h 7.187181 7.187185 L 89.921029,69.861026 C 89.664247,54.547788 89.367251,52.633002 86.621263,48.586573 83.776158,44.39409 79.895731,42.449505 74.319457,42.421805 c -4.033708,-0.02004 -6.986792,1.013109 -9.685305,3.388434 l -2.165702,1.906325 v -2.179732 -2.179734 h -6.893398 -6.893398 v 20.204788 20.204788 h 6.893398 6.893398 l 0.0019,-12.717131 z M 39.045008,36.868984 c 3.220405,-2.40438 4.163719,-6.338229 2.283234,-9.521638 -2.574998,-4.359124 -10.206574,-4.677591 -13.146666,-0.548612 -2.433788,3.417939 -1.181299,8.455402 2.577613,10.367058 2.484414,1.26349 6.383018,1.123837 8.285819,-0.296808 z"
     id="path3755"
     inkscape:connector-curvature="0" /><g
     id="g10" /><g
     id="g12" /><g
     id="g14" /><g
     id="g16" /><g
     id="g18" /><g
     id="g20" /><g
     id="g22" /><g
     id="g24" /><g
     id="g26" /><g
     id="g28" /><g
     id="g30" /><g
     id="g32" /><g
     id="g34" /><g
     id="g36" /><g
     id="g38" /></svg>