<?xml version="1.0" encoding="UTF-8" standalone="no"?>
<!-- Generator: Adobe Illustrator 19.0.0, SVG Export Plug-In . SVG Version: 6.00 Build 0)  -->

<svg
   xmlns:dc="http://purl.org/dc/elements/1.1/"
   xmlns:cc="http://creativecommons.org/ns#"
   xmlns:rdf="http://www.w3.org/1999/02/22-rdf-syntax-ns#"
   xmlns:svg="http://www.w3.org/2000/svg"
   xmlns="http://www.w3.org/2000/svg"
   xmlns:sodipodi="http://sodipodi.sourceforge.net/DTD/sodipodi-0.dtd"
   xmlns:inkscape="http://www.inkscape.org/namespaces/inkscape"
   version="1.1"
   id="Layer_1"
   x="0px"
   y="0px"
   viewBox="0 0 761.10945 761.10945"
   xml:space="preserve"
   sodipodi:docname="quora.svg"
   width="761.10944"
   height="761.10944"
   inkscape:export-filename="C:\Users\mazen.alhrishy\Documents\Git\python-data-science-courses\resources\images\quora-128.png"
   inkscape:export-xdpi="16.18914"
   inkscape:export-ydpi="16.18914"
   inkscape:version="0.92.2 (5c3e80d, 2017-08-06)"><metadata
     id="metadata39"><rdf:RDF><cc:Work
         rdf:about=""><dc:format>image/svg+xml</dc:format><dc:type
           rdf:resource="http://purl.org/dc/dcmitype/StillImage" /><dc:title /></cc:Work></rdf:RDF></metadata><defs
     id="defs37" /><sodipodi:namedview
     pagecolor="#ffffff"
     bordercolor="#666666"
     borderopacity="1"
     objecttolerance="10"
     gridtolerance="10"
     guidetolerance="10"
     inkscape:pageopacity="0"
     inkscape:pageshadow="2"
     inkscape:window-width="1858"
     inkscape:window-height="1057"
     id="namedview35"
     showgrid="false"
     showguides="true"
     inkscape:guide-bbox="true"
     fit-margin-top="0"
     fit-margin-left="0"
     fit-margin-right="0"
     fit-margin-bottom="0"
     inkscape:zoom="0.55182607"
     inkscape:cx="-282.69775"
     inkscape:cy="578.08072"
     inkscape:window-x="54"
     inkscape:window-y="-8"
     inkscape:window-maximized="1"
     inkscape:current-layer="Layer_1"><sodipodi:guide
       position="380.55471,771.98241"
       orientation="1,0"
       id="guide850"
       inkscape:locked="false" /><sodipodi:guide
       position="-19.933807,380.55472"
       orientation="0,1"
       id="guide852"
       inkscape:locked="false" /></sodipodi:namedview><path
     style="fill:#000000;stroke-width:1.81216514"
     d="M 343.36091,758.43431 C 214.1133,745.95642 99.759732,666.87095 40.502019,548.98094 27.727726,523.56718 14.798631,486.08234 8.7550786,456.93825 -26.263219,288.06786 58.314076,115.8404 213.56497,39.877246 298.51563,-1.6884926 395.86495,-10.105427 487.11002,16.22623 c 114.02359,32.905117 208.04503,120.75617 249.8876,233.48808 16.10841,43.39918 21.79174,77.23147 21.85748,130.11555 0.0569,45.80686 -2.24056,64.45708 -12.58574,102.16558 C 697.73365,658.90962 526.85707,776.14948 343.36091,758.43431 Z M 521.54116,593.01052 c 19.92575,-5.33059 37.31455,-18.43686 48.49537,-36.55186 6.27682,-10.1696 13.79018,-31.74489 15.18366,-43.60118 l 1.16863,-9.94322 -16.82476,0.52445 -16.82474,0.52446 -2.31312,7.84878 c -5.87996,19.95159 -26.32351,26.59965 -46.68134,15.18034 -8.18176,-4.58939 -28.26622,-25.66388 -28.37821,-29.77704 -0.0196,-0.7213 3.45456,-4.80171 7.72046,-9.06759 37.2303,-37.23031 58.48415,-94.0841 54.71923,-146.37327 -6.08393,-84.49675 -65.16385,-154.32517 -144.92891,-171.29605 -17.11836,-3.64212 -51.07725,-4.18201 -67.37719,-1.07119 -73.90408,14.10447 -132.40096,73.15484 -146.54289,147.92946 -3.98229,21.05608 -3.94612,54.99154 0.0792,74.27232 7.12036,34.10596 23.34304,65.8271 46.08354,90.10972 16.6594,17.78913 30.19634,28.3143 49.52586,38.50702 37.27285,19.65449 80.48616,25.43617 121.08975,16.20107 7.04035,-1.60129 13.01874,-2.62915 13.28532,-2.28409 0.26657,0.34503 3.21711,4.7047 6.55673,9.68816 8.46239,12.62776 27.8612,32.45084 38.33097,39.16928 18.10092,11.61532 46.12729,15.76357 67.63249,10.01043 z"
     id="path3714"
     inkscape:connector-curvature="0" /><path
     style="fill:#000000;stroke-width:1.81216514"
     d="m 335.79423,505.08237 c -13.18248,-4.25399 -19.30264,-7.57371 -29.35199,-15.92125 -60.35013,-50.13011 -72.28006,-170.87784 -24.05725,-243.49341 22.21787,-33.45645 55.31729,-51.00222 85.66499,-45.41044 18.95258,3.49215 30.33148,9.8934 46.73277,26.28973 16.56731,16.56229 25.27221,30.76992 34.26044,55.9179 16.64746,46.57751 15.40837,109.81776 -2.96708,151.43413 l -4.27022,9.67111 -6.34258,-8.53869 c -8.20894,-11.05127 -23.85153,-23.85973 -35.4422,-29.02075 -25.71602,-11.45069 -62.51737,-9.19946 -91.25246,5.58215 -18.28742,9.40723 -17.46201,7.83048 -10.9773,20.96956 l 5.72476,11.59931 h 20.3506 c 19.14129,0 20.79563,0.29459 27.83961,4.9572 8.53439,5.64917 18.17668,17.82944 30.01502,37.91539 l 8.17945,13.87794 -4.85426,1.88432 c -16.74528,6.50019 -33.74731,7.28924 -49.2523,2.2858 z"
     id="path3716"
     inkscape:connector-curvature="0" /><g
     id="g4"
     transform="translate(248.26665,-175.78)" /><g
     id="g6"
     transform="translate(248.26665,-175.78)" /><g
     id="g8"
     transform="translate(248.26665,-175.78)" /><g
     id="g10"
     transform="translate(248.26665,-175.78)" /><g
     id="g12"
     transform="translate(248.26665,-175.78)" /><g
     id="g14"
     transform="translate(248.26665,-175.78)" /><g
     id="g16"
     transform="translate(248.26665,-175.78)" /><g
     id="g18"
     transform="translate(248.26665,-175.78)" /><g
     id="g20"
     transform="translate(248.26665,-175.78)" /><g
     id="g22"
     transform="translate(248.26665,-175.78)" /><g
     id="g24"
     transform="translate(248.26665,-175.78)" /><g
     id="g26"
     transform="translate(248.26665,-175.78)" /><g
     id="g28"
     transform="translate(248.26665,-175.78)" /><g
     id="g30"
     transform="translate(248.26665,-175.78)" /><g
     id="g32"
     transform="translate(248.26665,-175.78)" /><path
     style="fill:#ffffff"
     d="m 553.5447,503.11903 c 0,0 -2.093,30.699 -30.001,30.699 -21.553,0 -36.272,-16.439 -50.055,-37.786 39.148,-34.171 64.008,-85.199 64.008,-142.221 10e-4,-102.882 -80.903,-186.285 -180.703,-186.285 -99.8,0 -180.704,83.403 -180.704,186.286 0,102.883 80.904,186.286 180.704,186.286 18.112,0 35.595,-2.759 52.092,-7.871 20.871,33.157 47.366,62.97 88.843,62.97 84.421,0 87.91,-92.077 87.91,-92.077 h -32.094 z m -196.751,6.28 c -58.185,0 -105.353,-69.659 -105.353,-155.587 0,-85.928 47.168,-155.587 105.353,-155.587 58.185,0 105.352,69.659 105.352,155.587 0,34.169 -7.464,65.759 -20.108,91.426 -14.283,-20.392 -31.428,-37.757 -55.941,-43.285 -43.485,-9.805 -80.933,9.768 -92.794,19.536 l 11.163,23.024 c 0,0 11.285,-6.488 39.267,-0.008 17.631,4.083 31.332,28.551 47.034,56.623 -10.658,5.36 -22.085,8.271 -33.973,8.271 z"
     id="path2"
     inkscape:connector-curvature="0" /></svg>