<?xml version="1.0" encoding="UTF-8" standalone="no"?>
<!-- Generator: Adobe Illustrator 19.0.0, SVG Export Plug-In . SVG Version: 6.00 Build 0)  -->

<svg
   xmlns:dc="http://purl.org/dc/elements/1.1/"
   xmlns:cc="http://creativecommons.org/ns#"
   xmlns:rdf="http://www.w3.org/1999/02/22-rdf-syntax-ns#"
   xmlns:svg="http://www.w3.org/2000/svg"
   xmlns="http://www.w3.org/2000/svg"
   xmlns:sodipodi="http://sodipodi.sourceforge.net/DTD/sodipodi-0.dtd"
   xmlns:inkscape="http://www.inkscape.org/namespaces/inkscape"
   version="1.1"
   id="Layer_1"
   x="0px"
   y="0px"
   viewBox="0 0 761.10945 761.10945"
   xml:space="preserve"
   sodipodi:docname="quora_black.svg"
   width="761.10944"
   height="761.10944"
   inkscape:export-filename="/Users/mga/Desktop/quora.png"
   inkscape:export-xdpi="16.204462"
   inkscape:export-ydpi="16.204462"
   inkscape:version="0.92.2 5c3e80d, 2017-08-06"><metadata
     id="metadata39"><rdf:RDF><cc:Work
         rdf:about=""><dc:format>image/svg+xml</dc:format><dc:type
           rdf:resource="http://purl.org/dc/dcmitype/StillImage" /><dc:title /></cc:Work></rdf:RDF></metadata><defs
     id="defs37" /><sodipodi:namedview
     pagecolor="#ffffff"
     bordercolor="#666666"
     borderopacity="1"
     objecttolerance="10"
     gridtolerance="10"
     guidetolerance="10"
     inkscape:pageopacity="0"
     inkscape:pageshadow="2"
     inkscape:window-width="1797"
     inkscape:window-height="966"
     id="namedview35"
     showgrid="false"
     showguides="true"
     inkscape:guide-bbox="true"
     fit-margin-top="0"
     fit-margin-left="0"
     fit-margin-right="0"
     fit-margin-bottom="0"
     inkscape:zoom="0.70710678"
     inkscape:cx="-113.98326"
     inkscape:cy="367.83477"
     inkscape:window-x="61"
     inkscape:window-y="4"
     inkscape:window-maximized="0"
     inkscape:current-layer="Layer_1"><sodipodi:guide
       position="380.55471,771.98241"
       orientation="1,0"
       id="guide850"
       inkscape:locked="false" /><sodipodi:guide
       position="-19.933807,380.55472"
       orientation="0,1"
       id="guide852"
       inkscape:locked="false" /></sodipodi:namedview><path
     style="fill:#000000;stroke-width:1.81216514"
     d="m 340.86554,506.98594 c -38.01502,-9.58192 -69.46224,-48.91647 -82.92352,-103.72174 -4.73701,-19.28593 -6.50867,-56.80482 -3.68062,-77.9457 7.80953,-58.37964 38.03188,-106.59777 75.83715,-120.99408 63.69302,-24.25442 126.13622,42.18905 130.36684,138.71848 1.49022,34.0018 -3.85054,66.65137 -15.17788,92.7867 l -3.3004,7.61496 -9.27725,-11.38437 c -10.88264,-13.35439 -27.8255,-25.26936 -42.14787,-29.64021 -15.70821,-4.79379 -44.62865,-4.29186 -61.7895,1.0724 -13.38822,4.18498 -26.81009,10.29812 -33.2783,15.15697 -3.18669,2.39382 -3.07226,3.02931 2.62647,14.58572 5.52734,11.20886 6.29268,11.98863 10.58053,10.7799 6.64025,-1.87186 25.05176,-1.13014 34.54425,1.39164 5.88961,1.56464 10.63305,4.76055 17.19423,11.58472 7.90723,8.22413 24.06455,32.6928 27.21005,41.20691 2.48954,6.73859 -30.40236,12.91682 -46.78418,8.7877 z"
     id="path179"
     inkscape:connector-curvature="0" /><path
     style="fill:#000000;stroke-width:1.81216514"
     d="M 355.00318,759.6225 C 249.34507,751.09448 155.66074,702.98336 88.604279,622.81466 -26.123351,485.65313 -28.195531,286.21717 83.627716,143.84767 98.321084,125.14058 131.32996,93.057787 151.13459,78.234742 201.5038,40.535216 255.31213,17.219843 317.85379,5.994617 340.71781,1.890893 396.69447,0.34568819 421.26957,3.139882 482.16422,10.06362 540.54869,31.144708 589.60846,63.922613 720.57601,151.42493 783.7185,305.24235 751.81888,459.0733 719.83629,613.30451 592.34894,733.03541 435.57161,756.07984 c -19.57965,2.87797 -64.39123,4.84838 -80.56843,3.54266 z m 167.8871,-167.09965 c 6.57936,-1.82439 15.6414,-5.47308 20.13785,-8.10819 10.70662,-6.27447 23.89383,-21.10717 30.63056,-34.45254 5.71606,-11.32346 12.39555,-34.60668 12.39555,-43.20814 v -5.14662 h -16.27496 c -16.25603,0 -16.27635,0.005 -17.47272,4.98345 -4.09656,17.04445 -13.90407,25.83097 -28.77202,25.77678 -15.93034,-0.058 -31.3147,-10.22193 -43.62189,-28.81937 l -4.81239,-7.272 13.34415,-14.37589 c 32.51436,-35.0283 49.15844,-78.36132 49.15844,-127.98444 0,-49.67913 -16.87301,-93.56758 -49.27342,-128.16518 -16.6594,-17.78914 -30.19635,-28.3143 -49.52586,-38.50702 -100.46071,-52.97431 -223.29279,1.58051 -255.75187,113.59003 -19.47788,67.21409 -0.46027,140.27929 49.00895,188.29115 24.84662,24.11465 51.88835,39.08428 85.23684,47.18502 20.96045,5.09153 54.71223,5.38515 76.247,0.6633 8.24075,-1.80692 15.21784,-2.96028 15.50463,-2.56303 14.72783,20.399 21.50036,28.60213 30.47047,36.90686 11.37583,10.53203 27.46857,19.79976 39.17138,22.55861 11.6791,2.75328 31.58923,2.1439 44.19931,-1.35278 z"
     id="path177"
     inkscape:connector-curvature="0" /><g
     id="g4"
     transform="translate(248.26665,-175.78)" /><g
     id="g6"
     transform="translate(248.26665,-175.78)" /><g
     id="g8"
     transform="translate(248.26665,-175.78)" /><g
     id="g10"
     transform="translate(248.26665,-175.78)" /><g
     id="g12"
     transform="translate(248.26665,-175.78)" /><g
     id="g14"
     transform="translate(248.26665,-175.78)" /><g
     id="g16"
     transform="translate(248.26665,-175.78)" /><g
     id="g18"
     transform="translate(248.26665,-175.78)" /><g
     id="g20"
     transform="translate(248.26665,-175.78)" /><g
     id="g22"
     transform="translate(248.26665,-175.78)" /><g
     id="g24"
     transform="translate(248.26665,-175.78)" /><g
     id="g26"
     transform="translate(248.26665,-175.78)" /><g
     id="g28"
     transform="translate(248.26665,-175.78)" /><g
     id="g30"
     transform="translate(248.26665,-175.78)" /><g
     id="g32"
     transform="translate(248.26665,-175.78)" /></svg>