<?xml version="1.0" encoding="UTF-8" standalone="no"?>
<!-- Generator: Adobe Illustrator 19.0.0, SVG Export Plug-In . SVG Version: 6.00 Build 0)  -->

<svg
   xmlns:dc="http://purl.org/dc/elements/1.1/"
   xmlns:cc="http://creativecommons.org/ns#"
   xmlns:rdf="http://www.w3.org/1999/02/22-rdf-syntax-ns#"
   xmlns:svg="http://www.w3.org/2000/svg"
   xmlns="http://www.w3.org/2000/svg"
   xmlns:sodipodi="http://sodipodi.sourceforge.net/DTD/sodipodi-0.dtd"
   xmlns:inkscape="http://www.inkscape.org/namespaces/inkscape"
   version="1.1"
   id="Layer_1"
   x="0px"
   y="0px"
   viewBox="0 0 761.10945 761.10945"
   xml:space="preserve"
   sodipodi:docname="quora.svg"
   width="761.10944"
   height="761.10944"
   inkscape:export-filename="/Users/mga/Desktop/quora.png"
   inkscape:export-xdpi="16.144854"
   inkscape:export-ydpi="16.144854"
   inkscape:version="0.92.2 5c3e80d, 2017-08-06"><metadata
     id="metadata39"><rdf:RDF><cc:Work
         rdf:about=""><dc:format>image/svg+xml</dc:format><dc:type
           rdf:resource="http://purl.org/dc/dcmitype/StillImage" /><dc:title /></cc:Work></rdf:RDF></metadata><defs
     id="defs37" /><sodipodi:namedview
     pagecolor="#ffffff"
     bordercolor="#666666"
     borderopacity="1"
     objecttolerance="10"
     gridtolerance="10"
     guidetolerance="10"
     inkscape:pageopacity="0"
     inkscape:pageshadow="2"
     inkscape:window-width="1797"
     inkscape:window-height="966"
     id="namedview35"
     showgrid="false"
     showguides="true"
     inkscape:guide-bbox="true"
     fit-margin-top="0"
     fit-margin-left="0"
     fit-margin-right="0"
     fit-margin-bottom="0"
     inkscape:zoom="0.55182607"
     inkscape:cx="-51.646692"
     inkscape:cy="578.08072"
     inkscape:window-x="63"
     inkscape:window-y="5"
     inkscape:window-maximized="0"
     inkscape:current-layer="Layer_1"><sodipodi:guide
       position="380.55471,771.98241"
       orientation="1,0"
       id="guide850"
       inkscape:locked="false" /><sodipodi:guide
       position="-19.933807,380.55472"
       orientation="0,1"
       id="guide852"
       inkscape:locked="false" /></sodipodi:namedview><g
     id="g4"
     transform="translate(248.26665,-175.78)" /><g
     id="g6"
     transform="translate(248.26665,-175.78)" /><g
     id="g8"
     transform="translate(248.26665,-175.78)" /><g
     id="g10"
     transform="translate(248.26665,-175.78)" /><g
     id="g12"
     transform="translate(248.26665,-175.78)" /><g
     id="g14"
     transform="translate(248.26665,-175.78)" /><g
     id="g16"
     transform="translate(248.26665,-175.78)" /><g
     id="g18"
     transform="translate(248.26665,-175.78)" /><g
     id="g20"
     transform="translate(248.26665,-175.78)" /><g
     id="g22"
     transform="translate(248.26665,-175.78)" /><g
     id="g24"
     transform="translate(248.26665,-175.78)" /><g
     id="g26"
     transform="translate(248.26665,-175.78)" /><g
     id="g28"
     transform="translate(248.26665,-175.78)" /><g
     id="g30"
     transform="translate(248.26665,-175.78)" /><g
     id="g32"
     transform="translate(248.26665,-175.78)" /><circle
     style="fill:#cf2217;fill-opacity:1;stroke-width:1.05826771;stroke-miterlimit:4;stroke-dasharray:none"
     id="path848"
     cx="380.55472"
     cy="380.55472"
     r="380.55472" /><path
     style="fill:#ffffff"
     d="m 553.5447,503.11903 c 0,0 -2.093,30.699 -30.001,30.699 -21.553,0 -36.272,-16.439 -50.055,-37.786 39.148,-34.171 64.008,-85.199 64.008,-142.221 10e-4,-102.882 -80.903,-186.285 -180.703,-186.285 -99.8,0 -180.704,83.403 -180.704,186.286 0,102.883 80.904,186.286 180.704,186.286 18.112,0 35.595,-2.759 52.092,-7.871 20.871,33.157 47.366,62.97 88.843,62.97 84.421,0 87.91,-92.077 87.91,-92.077 h -32.094 z m -196.751,6.28 c -58.185,0 -105.353,-69.659 -105.353,-155.587 0,-85.928 47.168,-155.587 105.353,-155.587 58.185,0 105.352,69.659 105.352,155.587 0,34.169 -7.464,65.759 -20.108,91.426 -14.283,-20.392 -31.428,-37.757 -55.941,-43.285 -43.485,-9.805 -80.933,9.768 -92.794,19.536 l 11.163,23.024 c 0,0 11.285,-6.488 39.267,-0.008 17.631,4.083 31.332,28.551 47.034,56.623 -10.658,5.36 -22.085,8.271 -33.973,8.271 z"
     id="path2"
     inkscape:connector-curvature="0" /></svg>