<?xml version="1.0" encoding="UTF-8" standalone="no"?>
<!-- Generator: Adobe Illustrator 18.0.0, SVG Export Plug-In . SVG Version: 6.00 Build 0)  -->

<svg
   xmlns:dc="http://purl.org/dc/elements/1.1/"
   xmlns:cc="http://creativecommons.org/ns#"
   xmlns:rdf="http://www.w3.org/1999/02/22-rdf-syntax-ns#"
   xmlns:svg="http://www.w3.org/2000/svg"
   xmlns="http://www.w3.org/2000/svg"
   xmlns:sodipodi="http://sodipodi.sourceforge.net/DTD/sodipodi-0.dtd"
   xmlns:inkscape="http://www.inkscape.org/namespaces/inkscape"
   version="1.1"
   id="Capa_1"
   x="0px"
   y="0px"
   viewBox="0 0 132.44837 132.44837"
   xml:space="preserve"
   sodipodi:docname="scholar.svg"
   inkscape:version="0.92.2 (5c3e80d, 2017-08-06)"
   inkscape:export-filename="C:\Users\mazen.alhrishy\Documents\Git\python-data-science-courses\resources\images\scholar-128.png"
   inkscape:export-xdpi="92.77578"
   inkscape:export-ydpi="92.77578"
   width="132.44836"
   height="132.44836"><metadata
     id="metadata45"><rdf:RDF><cc:Work
         rdf:about=""><dc:format>image/svg+xml</dc:format><dc:type
           rdf:resource="http://purl.org/dc/dcmitype/StillImage" /><dc:title></dc:title></cc:Work></rdf:RDF></metadata><defs
     id="defs43" /><sodipodi:namedview
     pagecolor="#ffffff"
     bordercolor="#666666"
     borderopacity="1"
     objecttolerance="10"
     gridtolerance="10"
     guidetolerance="10"
     inkscape:pageopacity="0"
     inkscape:pageshadow="2"
     inkscape:window-width="1858"
     inkscape:window-height="1057"
     id="namedview41"
     showgrid="false"
     inkscape:zoom="1.4873721"
     inkscape:cx="88.410963"
     inkscape:cy="48.589284"
     inkscape:window-x="1974"
     inkscape:window-y="-8"
     inkscape:window-maximized="1"
     inkscape:current-layer="Capa_1"
     fit-margin-top="0"
     fit-margin-left="0"
     fit-margin-right="0"
     fit-margin-bottom="0" /><circle
     style="fill:#000000"
     id="path34"
     cx="66.224182"
     cy="66.224182"
     r="66.224182" /><g
     id="g10"
     transform="translate(338.85266,37.060532)" /><g
     id="g12"
     transform="translate(338.85266,37.060532)" /><g
     id="g14"
     transform="translate(338.85266,37.060532)" /><g
     id="g16"
     transform="translate(338.85266,37.060532)" /><g
     id="g18"
     transform="translate(338.85266,37.060532)" /><g
     id="g20"
     transform="translate(338.85266,37.060532)" /><g
     id="g22"
     transform="translate(338.85266,37.060532)" /><g
     id="g24"
     transform="translate(338.85266,37.060532)" /><g
     id="g26"
     transform="translate(338.85266,37.060532)" /><g
     id="g28"
     transform="translate(338.85266,37.060532)" /><g
     id="g30"
     transform="translate(338.85266,37.060532)" /><g
     id="g32"
     transform="translate(338.85266,37.060532)" /><g
     id="g34"
     transform="translate(338.85266,37.060532)" /><g
     id="g36"
     transform="translate(338.85266,37.060532)" /><g
     id="g38"
     transform="translate(338.85266,37.060532)" /><g
     transform="matrix(0.16006403,0,0,0.16006403,259.22322,51.387469)"
     id="g5"><g
       id="google"
       transform="translate(-1528.1163,-192.77775)"><path
         style="fill:#ffffff"
         inkscape:connector-curvature="0"
         d="M 423.301,341.7 395.25,321.3 c -10.199,-7.649 -20.4,-17.85 -20.4,-35.7 0,-17.85 12.75,-33.15 25.5,-40.8 33.15,-25.5 66.301,-53.55 66.301,-109.65 0,-53.55 -33.15,-84.15 -51,-99.45 H 459 L 489.6,0 H 331.5 C 219.3,0 163.2,71.4 163.2,147.9 c 0,58.65 45.9,122.4 127.5,122.4 h 20.4 c -2.55,7.65 -10.2,20.4 -10.2,33.15 0,25.5 10.2,35.7 22.95,51 -35.7,2.55 -102,10.2 -150.45,40.8 -45.9,28.05 -58.65,66.3 -58.65,94.35 0,58.65 53.55,114.75 168.3,114.75 137.7,0 204.001,-76.5 204.001,-150.449 C 487.051,400.35 459,372.3 423.301,341.7 Z M 229.5,109.65 c 0,-56.1 33.15,-81.6 68.85,-81.6 66.3,0 102,89.25 102,140.25 0,66.3 -53.549,79.05 -73.949,79.05 -63.751,0 -96.901,-79.05 -96.901,-137.7 z m 91.801,459 C 237.15,568.65 183.6,530.4 183.6,474.3 c 0,-56.1 51,-73.95 66.3,-81.6 33.15,-10.2 76.5,-12.75 84.151,-12.75 7.648,0 12.75,0 17.85,0 61.199,43.35 86.699,61.2 86.699,102 0,48.45 -48.45,86.7 -117.299,86.7 z"
         id="path2" /></g></g></svg>